Coordinates
version=1
nRows=12
nColumns=63
inDegrees=yes

Units are S.I. units (second, meters, Newtons, ...)
If the header above contains a line with 'inDegrees', this indicates whether rotational values are in degrees (yes) or radians (no).

endheader
time	pelvis_tilt	pelvis_list	pelvis_rotation	pelvis_tx	pelvis_ty	pelvis_tz	hip_flexion_r	hip_adduction_r	hip_rotation_r	knee_angle_r	knee_angle_r_beta	ankle_angle_r	subtalar_angle_r	mtp_angle_r	hip_flexion_l	hip_adduction_l	hip_rotation_l	knee_angle_l	knee_angle_l_beta	ankle_angle_l	subtalar_angle_l	mtp_angle_l	L5_S1_Flex_Ext	L5_S1_Lat_Bending	L5_S1_axial_rotation	L4_L5_Flex_Ext	L4_L5_Lat_Bending	L4_L5_axial_rotation	L3_L4_Flex_Ext	L3_L4_Lat_Bending	L3_L4_axial_rotation	L2_L3_Flex_Ext	L2_L3_Lat_Bending	L2_L3_axial_rotation	L1_L2_Flex_Ext	L1_L2_Lat_Bending	L1_L2_axial_rotation	L1_T12_Flex_Ext	L1_T12_Lat_Bending	L1_T12_axial_rotation	Abs_r3	Abs_r2	Abs_r1	Abs_t1	Abs_t2	neck_flexion	neck_bending	neck_rotation	arm_flex_r	arm_add_r	arm_rot_r	elbow_flex_r	pro_sup_r	wrist_flex_r	wrist_dev_r	arm_flex_l	arm_add_l	arm_rot_l	elbow_flex_l	pro_sup_l	wrist_flex_l	wrist_dev_l
0.000000	-3.065272	-4.493834	91.749814	0.296855	0.854320	0.735576	-2.247103	-0.937055	-11.407087	1.636505	0.028562	28.959697	17.239966	0.000000	0.718201	2.408645	14.480939	3.375367	0.058911	26.064899	-15.652127	0.000000	-0.101927	-0.157889	-1.192750	-0.189288	-0.209992	-1.267297	-0.167455	-0.383890	-1.267297	-0.116492	-0.383890	-1.043656	-0.094649	-0.321967	-0.969109	-0.058241	-0.244569	-0.894563	-0.728053	-1.786068	-6.633718	0.000000	0.000000	7.016351	-0.714633	1.366716	23.027867	-4.819331	93.823545	38.572645	89.533689	-22.782348	-6.751613	7.910275	-13.000338	47.017817	52.548031	88.697892	-7.199844	10.912304
0.016667	-2.986269	-4.492284	91.590401	0.296961	0.854075	0.735694	-2.262671	-0.888836	-11.259980	1.566467	0.027340	28.800279	17.195983	0.000000	0.373501	2.264735	14.763011	2.767848	0.048308	25.494514	-16.175719	0.000000	-0.103245	-0.153891	-0.978863	-0.191737	-0.204676	-1.040042	-0.169622	-0.374172	-1.040042	-0.117999	-0.374172	-0.856505	-0.095874	-0.313815	-0.795326	-0.058994	-0.238378	-0.734147	-0.737471	-1.740851	-5.444144	0.000000	0.000000	7.096107	-0.886803	-0.065396	21.397500	-5.540381	88.614010	38.965367	89.418322	-21.898636	-5.807004	10.393879	-12.491060	54.031788	51.260247	88.923137	-7.952941	10.242682
0.033333	-2.903377	-4.499980	91.499946	0.296914	0.853901	0.735803	-2.268622	-0.833994	-11.199045	1.509040	0.026338	28.687783	17.178115	0.000000	0.111666	2.135220	15.020549	2.270329	0.039625	25.071422	-16.573188	0.000000	-0.102161	-0.147180	-0.812560	-0.189724	-0.195749	-0.863346	-0.167841	-0.357853	-0.863346	-0.116760	-0.357853	-0.710990	-0.094867	-0.300129	-0.660205	-0.058375	-0.227981	-0.609420	-0.729727	-1.664926	-4.519218	0.000000	0.000000	7.144001	-1.083287	-1.267181	19.986879	-6.199216	84.010734	39.397169	89.327414	-20.741217	-4.815394	12.514674	-12.013656	59.846929	50.124354	89.093317	-8.323802	9.804439
0.050000	-2.818965	-4.516030	91.471009	0.296737	0.853791	0.735903	-2.265804	-0.774766	-11.214315	1.463098	0.025536	28.616901	17.182578	0.000000	-0.074284	2.020592	15.253094	1.875160	0.032728	24.780455	-16.856349	0.000000	-0.099027	-0.138280	-0.690230	-0.183902	-0.183913	-0.733370	-0.162691	-0.336215	-0.733370	-0.113178	-0.336215	-0.603951	-0.091956	-0.281981	-0.560812	-0.056584	-0.214196	-0.517673	-0.707338	-1.564255	-3.838853	0.000000	0.000000	7.165506	-1.299536	-2.252225	18.789880	-6.790978	80.011161	39.849477	89.258824	-19.371375	-3.803719	14.295665	-11.571605	64.552649	49.134680	89.213975	-8.352540	9.576239
0.066667	-2.735403	-4.539543	91.496149	0.296454	0.853737	0.735994	-2.255061	-0.713389	-11.295826	1.427514	0.024915	28.582323	17.205586	0.000000	-0.191326	1.921347	15.460185	1.574692	0.027484	24.606447	-17.037013	0.000000	-0.094194	-0.127721	-0.608261	-0.174927	-0.169869	-0.646277	-0.154751	-0.310540	-0.646277	-0.107654	-0.310540	-0.532228	-0.087468	-0.260448	-0.494212	-0.053822	-0.197839	-0.456195	-0.672816	-1.444802	-3.382962	0.000000	0.000000	7.166093	-1.531005	-3.034117	17.800379	-7.310806	76.612735	40.303714	89.210415	-17.850396	-2.798913	15.759855	-11.168381	68.238358	48.285549	89.290653	-8.079269	9.536750
0.083333	-2.655064	-4.569629	91.567922	0.296087	0.853732	0.736078	-2.237241	-0.652097	-11.433611	1.401159	0.024455	28.578741	17.243353	0.000000	-0.246440	1.837977	15.641360	1.361274	0.023759	24.534231	-17.126994	0.000000	-0.088015	-0.116028	-0.563040	-0.163452	-0.154317	-0.598230	-0.144599	-0.282110	-0.598230	-0.100592	-0.282110	-0.492660	-0.081730	-0.236604	-0.457470	-0.050292	-0.179727	-0.422280	-0.628679	-1.312530	-3.131459	0.000000	0.000000	7.151232	-1.773145	-3.626445	17.012251	-7.753841	73.812901	40.741307	89.180049	-16.239564	-1.827913	16.930251	-10.807462	70.993463	47.571288	89.328897	-7.544105	9.664636
0.100000	-2.580315	-4.605396	91.678888	0.295658	0.853767	0.736154	-2.213189	-0.593127	-11.617705	1.382907	0.024136	28.600848	17.292094	0.000000	-0.246603	1.770975	15.796160	1.227258	0.021420	24.548639	-17.138102	0.000000	-0.080841	-0.103729	-0.550957	-0.150130	-0.137959	-0.585391	-0.132814	-0.252206	-0.585391	-0.092393	-0.252206	-0.482087	-0.075069	-0.211524	-0.447652	-0.046193	-0.160676	-0.413218	-0.577440	-1.173400	-3.064256	0.000000	0.000000	7.126395	-2.021409	-4.042796	16.419372	-8.115223	71.609102	41.143681	89.165588	-14.600163	-0.917653	17.829856	-10.492325	72.907373	46.986223	89.334248	-6.787161	9.938564
0.116667	-2.513529	-4.645952	91.821606	0.295191	0.853835	0.736224	-2.183753	-0.538714	-11.838142	1.371631	0.023939	28.643333	17.348025	0.000000	-0.198794	1.720836	15.924123	1.164993	0.020333	24.634503	-17.082152	0.000000	-0.073026	-0.091351	-0.568399	-0.135616	-0.121496	-0.603924	-0.119974	-0.222110	-0.603924	-0.083461	-0.222110	-0.497349	-0.067811	-0.186282	-0.461824	-0.041727	-0.141502	-0.426299	-0.521614	-1.033377	-3.161265	0.000000	0.000000	7.097054	-2.271250	-4.296759	16.015617	-8.390092	69.998783	41.492260	89.164892	-12.993478	-0.095069	18.481677	-10.226446	74.069498	46.524679	89.312251	-5.848551	10.337199
0.133333	-2.457075	-4.690407	91.988633	0.294708	0.853929	0.736288	-2.149779	-0.491095	-12.084955	1.366203	0.023845	28.700889	17.407359	0.000000	-0.109991	1.688053	16.024790	1.166829	0.020365	24.776658	-16.970955	0.000000	-0.064920	-0.079421	-0.611756	-0.120563	-0.105629	-0.649990	-0.106657	-0.193103	-0.649990	-0.074197	-0.193103	-0.535286	-0.060285	-0.161955	-0.497051	-0.037095	-0.123023	-0.458817	-0.463716	-0.898422	-3.402401	0.000000	0.000000	7.068680	-2.518120	-4.401920	15.794862	-8.573590	68.979388	41.768471	89.175824	-11.480793	0.612903	18.908716	-10.013302	74.569245	46.180983	89.268449	-4.768389	10.839207
0.150000	-2.413324	-4.737870	92.172527	0.294231	0.854041	0.736346	-2.112112	-0.452505	-12.348180	1.365496	0.023832	28.768208	17.466311	0.000000	0.012826	1.673119	16.097698	1.225117	0.021382	24.959935	-16.816324	0.000000	-0.056876	-0.068466	-0.677414	-0.105625	-0.091060	-0.719753	-0.093442	-0.166468	-0.719753	-0.065004	-0.166468	-0.592738	-0.052815	-0.139616	-0.550399	-0.032499	-0.106054	-0.508061	-0.406261	-0.774500	-3.767576	0.000000	0.000000	7.046743	-2.757472	-4.371869	15.750983	-8.660855	68.548362	41.953737	89.196244	-10.123394	1.179329	19.133980	-9.856370	74.496024	45.949459	89.208386	-3.586790	11.423253
0.166667	-2.384646	-4.787449	92.365849	0.293785	0.854164	0.736399	-2.071599	-0.425181	-12.617849	1.368383	0.023883	28.839981	17.521096	0.000000	0.162681	1.676528	16.142388	1.332206	0.023251	25.169167	-16.630071	0.000000	-0.049247	-0.059013	-0.761764	-0.091456	-0.078488	-0.809374	-0.080908	-0.143485	-0.809374	-0.056284	-0.143485	-0.666543	-0.045731	-0.120340	-0.618933	-0.028140	-0.091412	-0.571323	-0.351765	-0.667571	-4.236702	0.000000	0.000000	7.036716	-2.984759	-4.220193	15.877855	-8.647028	68.703148	42.029485	89.224016	-8.982563	1.577273	19.180472	-9.759126	73.939244	45.824435	89.137604	-2.343868	12.068004
0.183333	-2.386393	-4.836589	92.534714	0.293459	0.854294	0.736440	-2.029148	-0.424439	-12.856589	1.373702	0.023976	28.891739	17.562841	0.000000	0.334929	1.711126	16.127663	1.511279	0.026377	25.349929	-16.447875	0.000000	-0.043318	-0.053409	-0.866036	-0.080446	-0.071034	-0.920163	-0.071167	-0.129859	-0.920163	-0.049508	-0.129859	-0.757782	-0.040225	-0.108912	-0.703654	-0.024752	-0.082731	-0.649527	-0.309416	-0.604174	-4.816634	0.000000	0.000000	7.101659	-3.223196	-3.961428	16.217701	-8.432914	69.778168	41.831551	89.250007	-8.753502	1.417489	19.038880	-9.755905	73.004208	45.815556	89.052397	-1.359430	12.585585
